{
    "asset" : {
        "generator" : "Khronos glTF Blender I/O v0.9.36",
        "version" : "2.0"
    },
    "scene" : 0,
    "scenes" : [
        {
            "name" : "Scene",
            "nodes" : [
                0,
                1
            ]
        }
    ],
    "nodes" : [
        {
            "mesh" : 0,
            "name" : "Cube.004",
            "scale" : [
                2.4964799880981445,
                1.4970279932022095,
                -0.05071215704083443
            ],
            "translation" : [
                0,
                0,
                0.007067561149597168
            ]
        },
        {
            "mesh" : 1,
            "name" : "Torus.001",
            "rotation" : [
                0.6532815098762512,
                -0.27059805393218994,
                -0.27059805393218994,
                0.6532814502716064
            ],
            "scale" : [
                0.7711154222488403,
                0.6771039366722107,
                0.7715179324150085
            ],
            "translation" : [
                0,
                0,
                0.010699152946472168
            ]
        }
    ],
    "materials" : [
        {
            "doubleSided" : true,
            "name" : "Material.001",
            "pbrMetallicRoughness" : {
                "baseColorFactor" : [
                    0,
                    0.36941370368003845,
                    0.161659374833107,
                    1
                ],
                "metallicFactor" : 0,
                "roughnessFactor" : 0.5
            }
        }
    ],
    "meshes" : [
        {
            "name" : "Cube.005",
            "primitives" : [
                {
                    "attributes" : {
                        "POSITION" : 0,
                        "NORMAL" : 1,
                        "TEXCOORD_0" : 2
                    },
                    "indices" : 3,
                    "material" : 0
                }
            ]
        },
        {
            "name" : "Torus.001",
            "primitives" : [
                {
                    "attributes" : {
                        "POSITION" : 4,
                        "NORMAL" : 5,
                        "TEXCOORD_0" : 6
                    },
                    "indices" : 7
                }
            ]
        }
    ],
    "accessors" : [
        {
            "bufferView" : 0,
            "componentType" : 5126,
            "count" : 384,
            "max" : [
                1,
                1,
                1
            ],
            "min" : [
                -1,
                -1,
                -1
            ],
            "type" : "VEC3"
        },
        {
            "bufferView" : 1,
            "componentType" : 5126,
            "count" : 384,
            "type" : "VEC3"
        },
        {
            "bufferView" : 2,
            "componentType" : 5126,
            "count" : 384,
            "type" : "VEC2"
        },
        {
            "bufferView" : 3,
            "componentType" : 5123,
            "count" : 564,
            "type" : "SCALAR"
        },
        {
            "bufferView" : 4,
            "componentType" : 5126,
            "count" : 192,
            "max" : [
                3.250304937362671,
                0.150660902261734,
                3.2502872943878174
            ],
            "min" : [
                -3.250304937362671,
                -0.150660902261734,
                -3.2502875328063965
            ],
            "type" : "VEC3"
        },
        {
            "bufferView" : 5,
            "componentType" : 5126,
            "count" : 192,
            "type" : "VEC3"
        },
        {
            "bufferView" : 6,
            "componentType" : 5126,
            "count" : 192,
            "type" : "VEC2"
        },
        {
            "bufferView" : 7,
            "componentType" : 5123,
            "count" : 288,
            "type" : "SCALAR"
        }
    ],
    "bufferViews" : [
        {
            "buffer" : 0,
            "byteLength" : 4608,
            "byteOffset" : 0
        },
        {
            "buffer" : 0,
            "byteLength" : 4608,
            "byteOffset" : 4608
        },
        {
            "buffer" : 0,
            "byteLength" : 3072,
            "byteOffset" : 9216
        },
        {
            "buffer" : 0,
            "byteLength" : 1128,
            "byteOffset" : 12288
        },
        {
            "buffer" : 0,
            "byteLength" : 2304,
            "byteOffset" : 13416
        },
        {
            "buffer" : 0,
            "byteLength" : 2304,
            "byteOffset" : 15720
        },
        {
            "buffer" : 0,
            "byteLength" : 1536,
            "byteOffset" : 18024
        },
        {
            "buffer" : 0,
            "byteLength" : 576,
            "byteOffset" : 19560
        }
    ],
    "buffers" : [
        {
            "byteLength" : 20136,
            "uri" : "signa.bin"
        }
    ]
}
