{
    "asset" : {
        "generator" : "Khronos glTF Blender I/O v0.9.36",
        "version" : "2.0"
    },
    "scene" : 0,
    "scenes" : [
        {
            "name" : "Scene",
            "nodes" : [
                0,
                1,
                2,
                3,
                4,
                5,
                6
            ]
        }
    ],
    "nodes" : [
        {
            "mesh" : 0,
            "name" : "Cube",
            "scale" : [
                12.01624584197998,
                1,
                0.9600000381469727
            ]
        },
        {
            "mesh" : 1,
            "name" : "Cube.001",
            "rotation" : [
                0,
                0,
                -0.7071067690849304,
                0.7071068286895752
            ],
            "scale" : [
                12.01624584197998,
                1,
                1
            ],
            "translation" : [
                -11.083849906921387,
                -11.078143119812012,
                0
            ]
        },
        {
            "mesh" : 2,
            "name" : "Cube.002",
            "rotation" : [
                0,
                0,
                -0.7071067690849304,
                0.7071068286895752
            ],
            "scale" : [
                12.01624584197998,
                1,
                1
            ],
            "translation" : [
                11.074355125427246,
                -11.078143119812012,
                0
            ]
        },
        {
            "mesh" : 3,
            "name" : "Cube.003",
            "scale" : [
                5.5,
                3.4000000953674316,
                -0.10644352436065674
            ],
            "translation" : [
                0,
                0,
                -1
            ]
        },
        {
            "mesh" : 4,
            "name" : "Cube.004",
            "scale" : [
                5.5,
                3.4000000953674316,
                -0.05071215704083443
            ],
            "translation" : [
                0,
                0,
                1
            ]
        },
        {
            "mesh" : 5,
            "name" : "Torus.001",
            "rotation" : [
                0.6532815098762512,
                -0.27059805393218994,
                -0.27059805393218994,
                0.6532814502716064
            ],
            "scale" : [
                0.7711154818534851,
                0.31351032853126526,
                0.7715179324150085
            ],
            "translation" : [
                0,
                0,
                1.0616267919540405
            ]
        },
        {
            "mesh" : 6,
            "name" : "Torus.000",
            "rotation" : [
                0.6532815098762512,
                -0.27059805393218994,
                -0.27059805393218994,
                0.6532814502716064
            ],
            "scale" : [
                0.7711154818534851,
                0.31351032853126526,
                0.7715179324150085
            ],
            "translation" : [
                0,
                0,
                -1.095565676689148
            ]
        }
    ],
    "materials" : [
        {
            "doubleSided" : true,
            "name" : "Material",
            "pbrMetallicRoughness" : {
                "baseColorFactor" : [
                    0.22661957144737244,
                    0.22661957144737244,
                    0.22661957144737244,
                    1
                ],
                "metallicFactor" : 1,
                "roughnessFactor" : 0.4000000059604645
            }
        },
        {
            "doubleSided" : true,
            "name" : "Material.001",
            "pbrMetallicRoughness" : {
                "baseColorFactor" : [
                    0,
                    0.36941370368003845,
                    0.161659374833107,
                    1
                ],
                "metallicFactor" : 0,
                "roughnessFactor" : 0.5
            }
        }
    ],
    "meshes" : [
        {
            "name" : "Cube",
            "primitives" : [
                {
                    "attributes" : {
                        "POSITION" : 0,
                        "NORMAL" : 1,
                        "TEXCOORD_0" : 2
                    },
                    "indices" : 3,
                    "material" : 0
                }
            ]
        },
        {
            "name" : "Cube.001",
            "primitives" : [
                {
                    "attributes" : {
                        "POSITION" : 4,
                        "NORMAL" : 5,
                        "TEXCOORD_0" : 6
                    },
                    "indices" : 3,
                    "material" : 0
                }
            ]
        },
        {
            "name" : "Cube.002",
            "primitives" : [
                {
                    "attributes" : {
                        "POSITION" : 7,
                        "NORMAL" : 8,
                        "TEXCOORD_0" : 9
                    },
                    "indices" : 3,
                    "material" : 0
                }
            ]
        },
        {
            "name" : "Cube.003",
            "primitives" : [
                {
                    "attributes" : {
                        "POSITION" : 10,
                        "NORMAL" : 11,
                        "TEXCOORD_0" : 12
                    },
                    "indices" : 13,
                    "material" : 1
                }
            ]
        },
        {
            "name" : "Cube.005",
            "primitives" : [
                {
                    "attributes" : {
                        "POSITION" : 14,
                        "NORMAL" : 15,
                        "TEXCOORD_0" : 16
                    },
                    "indices" : 13,
                    "material" : 1
                }
            ]
        },
        {
            "name" : "Torus.001",
            "primitives" : [
                {
                    "attributes" : {
                        "POSITION" : 17,
                        "NORMAL" : 18,
                        "TEXCOORD_0" : 19
                    },
                    "indices" : 20
                }
            ]
        },
        {
            "name" : "Torus.002",
            "primitives" : [
                {
                    "attributes" : {
                        "POSITION" : 21,
                        "NORMAL" : 22,
                        "TEXCOORD_0" : 23
                    },
                    "indices" : 20
                }
            ]
        }
    ],
    "accessors" : [
        {
            "bufferView" : 0,
            "componentType" : 5126,
            "count" : 5122,
            "max" : [
                1.004907488822937,
                1.0084999799728394,
                1.0084999799728394
            ],
            "min" : [
                -1.0060101747512817,
                -1.1868362426757812,
                -1.0084999799728394
            ],
            "type" : "VEC3"
        },
        {
            "bufferView" : 1,
            "componentType" : 5126,
            "count" : 5122,
            "type" : "VEC3"
        },
        {
            "bufferView" : 2,
            "componentType" : 5126,
            "count" : 5122,
            "type" : "VEC2"
        },
        {
            "bufferView" : 3,
            "componentType" : 5123,
            "count" : 7752,
            "type" : "SCALAR"
        },
        {
            "bufferView" : 4,
            "componentType" : 5126,
            "count" : 5122,
            "max" : [
                1.004907488822937,
                1.0084999799728394,
                1.0084999799728394
            ],
            "min" : [
                -1.0060101747512817,
                -1.1868362426757812,
                -1.0084999799728394
            ],
            "type" : "VEC3"
        },
        {
            "bufferView" : 5,
            "componentType" : 5126,
            "count" : 5122,
            "type" : "VEC3"
        },
        {
            "bufferView" : 6,
            "componentType" : 5126,
            "count" : 5122,
            "type" : "VEC2"
        },
        {
            "bufferView" : 7,
            "componentType" : 5126,
            "count" : 5122,
            "max" : [
                1.004907488822937,
                1.0084999799728394,
                1.0084999799728394
            ],
            "min" : [
                -1.0060101747512817,
                -1.1868362426757812,
                -1.0084999799728394
            ],
            "type" : "VEC3"
        },
        {
            "bufferView" : 8,
            "componentType" : 5126,
            "count" : 5122,
            "type" : "VEC3"
        },
        {
            "bufferView" : 9,
            "componentType" : 5126,
            "count" : 5122,
            "type" : "VEC2"
        },
        {
            "bufferView" : 10,
            "componentType" : 5126,
            "count" : 384,
            "max" : [
                1,
                1,
                1
            ],
            "min" : [
                -1,
                -1,
                -1
            ],
            "type" : "VEC3"
        },
        {
            "bufferView" : 11,
            "componentType" : 5126,
            "count" : 384,
            "type" : "VEC3"
        },
        {
            "bufferView" : 12,
            "componentType" : 5126,
            "count" : 384,
            "type" : "VEC2"
        },
        {
            "bufferView" : 13,
            "componentType" : 5123,
            "count" : 564,
            "type" : "SCALAR"
        },
        {
            "bufferView" : 14,
            "componentType" : 5126,
            "count" : 384,
            "max" : [
                1,
                1,
                1
            ],
            "min" : [
                -1,
                -1,
                -1
            ],
            "type" : "VEC3"
        },
        {
            "bufferView" : 15,
            "componentType" : 5126,
            "count" : 384,
            "type" : "VEC3"
        },
        {
            "bufferView" : 16,
            "componentType" : 5126,
            "count" : 384,
            "type" : "VEC2"
        },
        {
            "bufferView" : 17,
            "componentType" : 5126,
            "count" : 192,
            "max" : [
                7.287874698638916,
                0.15066103637218475,
                7.287837982177734
            ],
            "min" : [
                -7.287874698638916,
                -0.15066102147102356,
                -7.287837982177734
            ],
            "type" : "VEC3"
        },
        {
            "bufferView" : 18,
            "componentType" : 5126,
            "count" : 192,
            "type" : "VEC3"
        },
        {
            "bufferView" : 19,
            "componentType" : 5126,
            "count" : 192,
            "type" : "VEC2"
        },
        {
            "bufferView" : 20,
            "componentType" : 5123,
            "count" : 288,
            "type" : "SCALAR"
        },
        {
            "bufferView" : 21,
            "componentType" : 5126,
            "count" : 192,
            "max" : [
                7.287874698638916,
                0.15066103637218475,
                7.287837982177734
            ],
            "min" : [
                -7.287874698638916,
                -0.15066102147102356,
                -7.287837982177734
            ],
            "type" : "VEC3"
        },
        {
            "bufferView" : 22,
            "componentType" : 5126,
            "count" : 192,
            "type" : "VEC3"
        },
        {
            "bufferView" : 23,
            "componentType" : 5126,
            "count" : 192,
            "type" : "VEC2"
        }
    ],
    "bufferViews" : [
        {
            "buffer" : 0,
            "byteLength" : 61464,
            "byteOffset" : 0
        },
        {
            "buffer" : 0,
            "byteLength" : 61464,
            "byteOffset" : 61464
        },
        {
            "buffer" : 0,
            "byteLength" : 40976,
            "byteOffset" : 122928
        },
        {
            "buffer" : 0,
            "byteLength" : 15504,
            "byteOffset" : 163904
        },
        {
            "buffer" : 0,
            "byteLength" : 61464,
            "byteOffset" : 179408
        },
        {
            "buffer" : 0,
            "byteLength" : 61464,
            "byteOffset" : 240872
        },
        {
            "buffer" : 0,
            "byteLength" : 40976,
            "byteOffset" : 302336
        },
        {
            "buffer" : 0,
            "byteLength" : 61464,
            "byteOffset" : 343312
        },
        {
            "buffer" : 0,
            "byteLength" : 61464,
            "byteOffset" : 404776
        },
        {
            "buffer" : 0,
            "byteLength" : 40976,
            "byteOffset" : 466240
        },
        {
            "buffer" : 0,
            "byteLength" : 4608,
            "byteOffset" : 507216
        },
        {
            "buffer" : 0,
            "byteLength" : 4608,
            "byteOffset" : 511824
        },
        {
            "buffer" : 0,
            "byteLength" : 3072,
            "byteOffset" : 516432
        },
        {
            "buffer" : 0,
            "byteLength" : 1128,
            "byteOffset" : 519504
        },
        {
            "buffer" : 0,
            "byteLength" : 4608,
            "byteOffset" : 520632
        },
        {
            "buffer" : 0,
            "byteLength" : 4608,
            "byteOffset" : 525240
        },
        {
            "buffer" : 0,
            "byteLength" : 3072,
            "byteOffset" : 529848
        },
        {
            "buffer" : 0,
            "byteLength" : 2304,
            "byteOffset" : 532920
        },
        {
            "buffer" : 0,
            "byteLength" : 2304,
            "byteOffset" : 535224
        },
        {
            "buffer" : 0,
            "byteLength" : 1536,
            "byteOffset" : 537528
        },
        {
            "buffer" : 0,
            "byteLength" : 576,
            "byteOffset" : 539064
        },
        {
            "buffer" : 0,
            "byteLength" : 2304,
            "byteOffset" : 539640
        },
        {
            "buffer" : 0,
            "byteLength" : 2304,
            "byteOffset" : 541944
        },
        {
            "buffer" : 0,
            "byteLength" : 1536,
            "byteOffset" : 544248
        }
    ],
    "buffers" : [
        {
            "byteLength" : 545784,
            "uri" : "signal5.bin"
        }
    ]
}
