{
    "asset" : {
        "generator" : "Khronos glTF Blender I/O v0.9.36",
        "version" : "2.0"
    },
    "scene" : 0,
    "scenes" : [
        {
            "name" : "Scene",
            "nodes" : [
                0,
                1,
                12
            ]
        }
    ],
    "nodes" : [
        {
            "mesh" : 0,
            "name" : "Text",
            "rotation" : [
                0.7071067690849304,
                0,
                0,
                0.7071067690849304
            ],
            "scale" : [
                1.17490553855896,
                0.3377484083175659,
                0.780939519405365
            ]
        },
        {
            "mesh" : 1,
            "name" : "Text.001",
            "rotation" : [
                0.7071067690849304,
                0,
                0,
                0.7071067690849304
            ],
            "scale" : [
                1.17490553855896,
                0.3377484083175659,
                0.780939519405365
            ]
        },
        {
            "mesh" : 2,
            "name" : "Curve"
        },
        {
            "mesh" : 3,
            "name" : "Curve.002"
        },
        {
            "mesh" : 4,
            "name" : "Curve.003"
        },
        {
            "mesh" : 5,
            "name" : "Curve.004"
        },
        {
            "mesh" : 6,
            "name" : "Curve.005"
        },
        {
            "mesh" : 7,
            "name" : "Curve.006",
            "scale" : [
                0.9949318766593933,
                0.9949318170547485,
                0.9949318170547485
            ]
        },
        {
            "mesh" : 8,
            "name" : "Curve.008"
        },
        {
            "mesh" : 9,
            "name" : "Curve.009"
        },
        {
            "mesh" : 10,
            "name" : "Curve.010"
        },
        {
            "mesh" : 11,
            "name" : "Curve.011"
        },
        {
            "children" : [
                2,
                3,
                4,
                5,
                6,
                7,
                8,
                9,
                10,
                11
            ],
            "mesh" : 12,
            "name" : "Curve.007",
            "rotation" : [
                0.6532815098762512,
                0.27059805393218994,
                -0.27059805393218994,
                0.6532814502716064
            ],
            "scale" : [
                6.21144962310791,
                4.035028457641602,
                6.21144962310791
            ],
            "translation" : [
                -3.200000047683716,
                1.2000000476837158,
                2.799999952316284
            ]
        }
    ],
    "materials" : [
        {
            "doubleSided" : true,
            "name" : "RED.001",
            "pbrMetallicRoughness" : {
                "baseColorFactor" : [
                    1,
                    0,
                    0.00039527303306385875,
                    1
                ],
                "metallicFactor" : 0,
                "roughnessFactor" : 0.5
            }
        },
        {
            "doubleSided" : true,
            "name" : "RED",
            "pbrMetallicRoughness" : {
                "metallicFactor" : 0,
                "roughnessFactor" : 0.5
            }
        },
        {
            "doubleSided" : true,
            "name" : "SVGMat.003",
            "pbrMetallicRoughness" : {}
        },
        {
            "doubleSided" : true,
            "name" : "Material.002",
            "pbrMetallicRoughness" : {
                "baseColorFactor" : [
                    0.36941370368003845,
                    0.0025690554175525904,
                    0,
                    1
                ],
                "metallicFactor" : 0,
                "roughnessFactor" : 0.5
            }
        }
    ],
    "meshes" : [
        {
            "name" : "Text",
            "primitives" : [
                {
                    "attributes" : {
                        "POSITION" : 0,
                        "NORMAL" : 1
                    },
                    "indices" : 2,
                    "material" : 0
                }
            ]
        },
        {
            "name" : "Text.001",
            "primitives" : [
                {
                    "attributes" : {
                        "POSITION" : 3,
                        "NORMAL" : 4
                    },
                    "indices" : 5,
                    "material" : 1
                }
            ]
        },
        {
            "name" : "Curve.002",
            "primitives" : [
                {
                    "attributes" : {
                        "POSITION" : 6,
                        "NORMAL" : 7
                    },
                    "indices" : 8,
                    "material" : 2
                }
            ]
        },
        {
            "name" : "Curve.003",
            "primitives" : [
                {
                    "attributes" : {
                        "POSITION" : 9,
                        "NORMAL" : 10
                    },
                    "indices" : 11,
                    "material" : 2
                }
            ]
        },
        {
            "name" : "Curve.004",
            "primitives" : [
                {
                    "attributes" : {
                        "POSITION" : 12,
                        "NORMAL" : 13
                    },
                    "indices" : 14,
                    "material" : 2
                }
            ]
        },
        {
            "name" : "Curve.005",
            "primitives" : [
                {
                    "attributes" : {
                        "POSITION" : 15,
                        "NORMAL" : 16
                    },
                    "indices" : 17,
                    "material" : 2
                }
            ]
        },
        {
            "name" : "Curve.006",
            "primitives" : [
                {
                    "attributes" : {
                        "POSITION" : 18,
                        "NORMAL" : 19
                    },
                    "indices" : 20,
                    "material" : 2
                }
            ]
        },
        {
            "name" : "Curve.007",
            "primitives" : [
                {
                    "attributes" : {
                        "POSITION" : 21,
                        "NORMAL" : 22
                    },
                    "indices" : 23,
                    "material" : 3
                }
            ]
        },
        {
            "name" : "Curve.009",
            "primitives" : [
                {
                    "attributes" : {
                        "POSITION" : 24,
                        "NORMAL" : 25
                    },
                    "indices" : 26,
                    "material" : 2
                }
            ]
        },
        {
            "name" : "Curve.010",
            "primitives" : [
                {
                    "attributes" : {
                        "POSITION" : 27,
                        "NORMAL" : 28
                    },
                    "indices" : 29,
                    "material" : 2
                }
            ]
        },
        {
            "name" : "Curve.011",
            "primitives" : [
                {
                    "attributes" : {
                        "POSITION" : 30,
                        "NORMAL" : 31
                    },
                    "indices" : 32,
                    "material" : 2
                }
            ]
        },
        {
            "name" : "Curve.012",
            "primitives" : [
                {
                    "attributes" : {
                        "POSITION" : 33,
                        "NORMAL" : 34
                    },
                    "indices" : 35,
                    "material" : 2
                }
            ]
        },
        {
            "name" : "Curve.008",
            "primitives" : [
                {
                    "attributes" : {
                        "POSITION" : 36,
                        "NORMAL" : 37
                    },
                    "indices" : 38,
                    "material" : 2
                }
            ]
        }
    ],
    "accessors" : [
        {
            "bufferView" : 0,
            "componentType" : 5126,
            "count" : 1815,
            "max" : [
                1.6881942749023438,
                0.1510000079870224,
                0.33378952741622925
            ],
            "min" : [
                0.8427048921585083,
                -0.1510000079870224,
                -0.30646491050720215
            ],
            "type" : "VEC3"
        },
        {
            "bufferView" : 1,
            "componentType" : 5126,
            "count" : 1815,
            "type" : "VEC3"
        },
        {
            "bufferView" : 2,
            "componentType" : 5123,
            "count" : 7824,
            "type" : "SCALAR"
        },
        {
            "bufferView" : 3,
            "componentType" : 5126,
            "count" : 2736,
            "max" : [
                0.8040353059768677,
                0.1510000079870224,
                0.33378952741622925
            ],
            "min" : [
                -1.7163347005844116,
                -0.1510000079870224,
                -0.30646491050720215
            ],
            "type" : "VEC3"
        },
        {
            "bufferView" : 4,
            "componentType" : 5126,
            "count" : 2736,
            "type" : "VEC3"
        },
        {
            "bufferView" : 5,
            "componentType" : 5123,
            "count" : 11652,
            "type" : "SCALAR"
        },
        {
            "bufferView" : 6,
            "componentType" : 5126,
            "count" : 936,
            "max" : [
                0.2653649151325226,
                0.1191408708691597,
                0.05480414628982544
            ],
            "min" : [
                0.21343497931957245,
                0,
                0.015585318207740784
            ],
            "type" : "VEC3"
        },
        {
            "bufferView" : 7,
            "componentType" : 5126,
            "count" : 936,
            "type" : "VEC3"
        },
        {
            "bufferView" : 8,
            "componentType" : 5123,
            "count" : 1860,
            "type" : "SCALAR"
        },
        {
            "bufferView" : 9,
            "componentType" : 5126,
            "count" : 1016,
            "max" : [
                0.20771415531635284,
                0.1191408708691597,
                0.047928888350725174
            ],
            "min" : [
                0.16797420382499695,
                0,
                0.016021795570850372
            ],
            "type" : "VEC3"
        },
        {
            "bufferView" : 10,
            "componentType" : 5126,
            "count" : 1016,
            "type" : "VEC3"
        },
        {
            "bufferView" : 11,
            "componentType" : 5123,
            "count" : 2028,
            "type" : "SCALAR"
        },
        {
            "bufferView" : 12,
            "componentType" : 5126,
            "count" : 864,
            "max" : [
                0.15769492089748383,
                0.1191408708691597,
                0.063544861972332
            ],
            "min" : [
                0.10336732864379883,
                0,
                0.01806669495999813
            ],
            "type" : "VEC3"
        },
        {
            "bufferView" : 13,
            "componentType" : 5126,
            "count" : 864,
            "type" : "VEC3"
        },
        {
            "bufferView" : 14,
            "componentType" : 5123,
            "count" : 1716,
            "type" : "SCALAR"
        },
        {
            "bufferView" : 15,
            "componentType" : 5126,
            "count" : 1224,
            "max" : [
                0.3188435733318329,
                0.1191408708691597,
                0.10457640141248703
            ],
            "min" : [
                0.24162240326404572,
                0,
                0.026845259591937065
            ],
            "type" : "VEC3"
        },
        {
            "bufferView" : 16,
            "componentType" : 5126,
            "count" : 1224,
            "type" : "VEC3"
        },
        {
            "bufferView" : 17,
            "componentType" : 5123,
            "count" : 2436,
            "type" : "SCALAR"
        },
        {
            "bufferView" : 18,
            "componentType" : 5126,
            "count" : 1080,
            "max" : [
                0.1328980028629303,
                0.1191408708691597,
                0.10642281919717789
            ],
            "min" : [
                0.06035417318344116,
                0,
                0.03284505382180214
            ],
            "type" : "VEC3"
        },
        {
            "bufferView" : 19,
            "componentType" : 5126,
            "count" : 1080,
            "type" : "VEC3"
        },
        {
            "bufferView" : 20,
            "componentType" : 5123,
            "count" : 2148,
            "type" : "SCALAR"
        },
        {
            "bufferView" : 21,
            "componentType" : 5126,
            "count" : 1224,
            "max" : [
                0.24443596601486206,
                0.11974776536226273,
                0.13110791146755219
            ],
            "min" : [
                0.13588400185108185,
                0,
                0.05752220377326012
            ],
            "type" : "VEC3"
        },
        {
            "bufferView" : 22,
            "componentType" : 5126,
            "count" : 1224,
            "type" : "VEC3"
        },
        {
            "bufferView" : 23,
            "componentType" : 5123,
            "count" : 2436,
            "type" : "SCALAR"
        },
        {
            "bufferView" : 24,
            "componentType" : 5126,
            "count" : 864,
            "max" : [
                0.11279420554637909,
                0.1191408708691597,
                0.1177138015627861
            ],
            "min" : [
                0.05927671119570732,
                0,
                0.0850488692522049
            ],
            "type" : "VEC3"
        },
        {
            "bufferView" : 25,
            "componentType" : 5126,
            "count" : 864,
            "type" : "VEC3"
        },
        {
            "bufferView" : 26,
            "componentType" : 5123,
            "count" : 1716,
            "type" : "SCALAR"
        },
        {
            "bufferView" : 27,
            "componentType" : 5126,
            "count" : 11336,
            "max" : [
                0.32559141516685486,
                0.1191408708691597,
                0.3720863461494446
            ],
            "min" : [
                0.05362332984805107,
                0,
                0.12186527997255325
            ],
            "type" : "VEC3"
        },
        {
            "bufferView" : 28,
            "componentType" : 5126,
            "count" : 11336,
            "type" : "VEC3"
        },
        {
            "bufferView" : 29,
            "componentType" : 5123,
            "count" : 22680,
            "type" : "SCALAR"
        },
        {
            "bufferView" : 30,
            "componentType" : 5126,
            "count" : 4248,
            "max" : [
                0.1800587773323059,
                0.1191408708691597,
                0.33642229437828064
            ],
            "min" : [
                0.0761466845870018,
                0,
                0.14118212461471558
            ],
            "type" : "VEC3"
        },
        {
            "bufferView" : 31,
            "componentType" : 5126,
            "count" : 4248,
            "type" : "VEC3"
        },
        {
            "bufferView" : 32,
            "componentType" : 5123,
            "count" : 8484,
            "type" : "SCALAR"
        },
        {
            "bufferView" : 33,
            "componentType" : 5126,
            "count" : 3240,
            "max" : [
                0.2968609035015106,
                0.1191408708691597,
                0.3286721110343933
            ],
            "min" : [
                0.20462660491466522,
                0,
                0.15316009521484375
            ],
            "type" : "VEC3"
        },
        {
            "bufferView" : 34,
            "componentType" : 5126,
            "count" : 3240,
            "type" : "VEC3"
        },
        {
            "bufferView" : 35,
            "componentType" : 5123,
            "count" : 6468,
            "type" : "SCALAR"
        },
        {
            "bufferView" : 36,
            "componentType" : 5126,
            "count" : 864,
            "max" : [
                0.32087090611457825,
                0.1191408708691597,
                0.11883572489023209
            ],
            "min" : [
                0.2582474946975708,
                0,
                0.08153337985277176
            ],
            "type" : "VEC3"
        },
        {
            "bufferView" : 37,
            "componentType" : 5126,
            "count" : 864,
            "type" : "VEC3"
        },
        {
            "bufferView" : 38,
            "componentType" : 5123,
            "count" : 1716,
            "type" : "SCALAR"
        }
    ],
    "bufferViews" : [
        {
            "buffer" : 0,
            "byteLength" : 21780,
            "byteOffset" : 0
        },
        {
            "buffer" : 0,
            "byteLength" : 21780,
            "byteOffset" : 21780
        },
        {
            "buffer" : 0,
            "byteLength" : 15648,
            "byteOffset" : 43560
        },
        {
            "buffer" : 0,
            "byteLength" : 32832,
            "byteOffset" : 59208
        },
        {
            "buffer" : 0,
            "byteLength" : 32832,
            "byteOffset" : 92040
        },
        {
            "buffer" : 0,
            "byteLength" : 23304,
            "byteOffset" : 124872
        },
        {
            "buffer" : 0,
            "byteLength" : 11232,
            "byteOffset" : 148176
        },
        {
            "buffer" : 0,
            "byteLength" : 11232,
            "byteOffset" : 159408
        },
        {
            "buffer" : 0,
            "byteLength" : 3720,
            "byteOffset" : 170640
        },
        {
            "buffer" : 0,
            "byteLength" : 12192,
            "byteOffset" : 174360
        },
        {
            "buffer" : 0,
            "byteLength" : 12192,
            "byteOffset" : 186552
        },
        {
            "buffer" : 0,
            "byteLength" : 4056,
            "byteOffset" : 198744
        },
        {
            "buffer" : 0,
            "byteLength" : 10368,
            "byteOffset" : 202800
        },
        {
            "buffer" : 0,
            "byteLength" : 10368,
            "byteOffset" : 213168
        },
        {
            "buffer" : 0,
            "byteLength" : 3432,
            "byteOffset" : 223536
        },
        {
            "buffer" : 0,
            "byteLength" : 14688,
            "byteOffset" : 226968
        },
        {
            "buffer" : 0,
            "byteLength" : 14688,
            "byteOffset" : 241656
        },
        {
            "buffer" : 0,
            "byteLength" : 4872,
            "byteOffset" : 256344
        },
        {
            "buffer" : 0,
            "byteLength" : 12960,
            "byteOffset" : 261216
        },
        {
            "buffer" : 0,
            "byteLength" : 12960,
            "byteOffset" : 274176
        },
        {
            "buffer" : 0,
            "byteLength" : 4296,
            "byteOffset" : 287136
        },
        {
            "buffer" : 0,
            "byteLength" : 14688,
            "byteOffset" : 291432
        },
        {
            "buffer" : 0,
            "byteLength" : 14688,
            "byteOffset" : 306120
        },
        {
            "buffer" : 0,
            "byteLength" : 4872,
            "byteOffset" : 320808
        },
        {
            "buffer" : 0,
            "byteLength" : 10368,
            "byteOffset" : 325680
        },
        {
            "buffer" : 0,
            "byteLength" : 10368,
            "byteOffset" : 336048
        },
        {
            "buffer" : 0,
            "byteLength" : 3432,
            "byteOffset" : 346416
        },
        {
            "buffer" : 0,
            "byteLength" : 136032,
            "byteOffset" : 349848
        },
        {
            "buffer" : 0,
            "byteLength" : 136032,
            "byteOffset" : 485880
        },
        {
            "buffer" : 0,
            "byteLength" : 45360,
            "byteOffset" : 621912
        },
        {
            "buffer" : 0,
            "byteLength" : 50976,
            "byteOffset" : 667272
        },
        {
            "buffer" : 0,
            "byteLength" : 50976,
            "byteOffset" : 718248
        },
        {
            "buffer" : 0,
            "byteLength" : 16968,
            "byteOffset" : 769224
        },
        {
            "buffer" : 0,
            "byteLength" : 38880,
            "byteOffset" : 786192
        },
        {
            "buffer" : 0,
            "byteLength" : 38880,
            "byteOffset" : 825072
        },
        {
            "buffer" : 0,
            "byteLength" : 12936,
            "byteOffset" : 863952
        },
        {
            "buffer" : 0,
            "byteLength" : 10368,
            "byteOffset" : 876888
        },
        {
            "buffer" : 0,
            "byteLength" : 10368,
            "byteOffset" : 887256
        },
        {
            "buffer" : 0,
            "byteLength" : 3432,
            "byteOffset" : 897624
        }
    ],
    "buffers" : [
        {
            "byteLength" : 901056,
            "uri" : "data:application/octet-stream;base64,"
        }
    ]
}
