{
    "asset" : {
        "generator" : "Khronos glTF Blender I/O v0.9.36",
        "version" : "2.0"
    },
    "scene" : 0,
    "scenes" : [
        {
            "name" : "Scene",
            "nodes" : [
                0,
                1,
                2,
                3,
                4
            ]
        }
    ],
    "nodes" : [
        {
            "mesh" : 0,
            "name" : "Cube",
            "scale" : [
                12.01624584197998,
                1,
                0.9600000381469727
            ]
        },
        {
            "mesh" : 1,
            "name" : "Cube.003",
            "scale" : [
                5.5,
                3.4000000953674316,
                -0.10644352436065674
            ],
            "translation" : [
                0,
                0,
                -1
            ]
        },
        {
            "mesh" : 2,
            "name" : "Cube.004",
            "scale" : [
                5.5,
                3.4000000953674316,
                -0.05071215704083443
            ],
            "translation" : [
                0,
                0,
                1
            ]
        },
        {
            "mesh" : 3,
            "name" : "Torus.001",
            "rotation" : [
                0.6532815098762512,
                -0.27059805393218994,
                -0.27059805393218994,
                0.6532814502716064
            ],
            "scale" : [
                0.7711154818534851,
                0.31351032853126526,
                0.7715179324150085
            ],
            "translation" : [
                0,
                0,
                1.0616267919540405
            ]
        },
        {
            "mesh" : 4,
            "name" : "Torus.000",
            "rotation" : [
                0.6532815098762512,
                -0.27059805393218994,
                -0.27059805393218994,
                0.6532814502716064
            ],
            "scale" : [
                0.7711154818534851,
                0.31351032853126526,
                0.7715179324150085
            ],
            "translation" : [
                0,
                0,
                -1.095565676689148
            ]
        }
    ],
    "materials" : [
        {
            "doubleSided" : true,
            "name" : "Material",
            "pbrMetallicRoughness" : {
                "baseColorFactor" : [
                    0.35594892501831055,
                    0.35594892501831055,
                    0.35594892501831055,
                    1
                ],
                "metallicFactor" : 1,
                "roughnessFactor" : 0.20000000298023224
            }
        },
        {
            "doubleSided" : true,
            "name" : "Material.001",
            "pbrMetallicRoughness" : {
                "baseColorFactor" : [
                    0,
                    0.36941370368003845,
                    0.161659374833107,
                    1
                ],
                "metallicFactor" : 0,
                "roughnessFactor" : 0.5
            }
        }
    ],
    "meshes" : [
        {
            "name" : "Cube",
            "primitives" : [
                {
                    "attributes" : {
                        "POSITION" : 0,
                        "NORMAL" : 1,
                        "TEXCOORD_0" : 2
                    },
                    "indices" : 3,
                    "material" : 0
                }
            ]
        },
        {
            "name" : "Cube.003",
            "primitives" : [
                {
                    "attributes" : {
                        "POSITION" : 4,
                        "NORMAL" : 5,
                        "TEXCOORD_0" : 6
                    },
                    "indices" : 7,
                    "material" : 1
                }
            ]
        },
        {
            "name" : "Cube.005",
            "primitives" : [
                {
                    "attributes" : {
                        "POSITION" : 8,
                        "NORMAL" : 9,
                        "TEXCOORD_0" : 10
                    },
                    "indices" : 7,
                    "material" : 1
                }
            ]
        },
        {
            "name" : "Torus.001",
            "primitives" : [
                {
                    "attributes" : {
                        "POSITION" : 11,
                        "NORMAL" : 12,
                        "TEXCOORD_0" : 13
                    },
                    "indices" : 14
                }
            ]
        },
        {
            "name" : "Torus.002",
            "primitives" : [
                {
                    "attributes" : {
                        "POSITION" : 15,
                        "NORMAL" : 16,
                        "TEXCOORD_0" : 17
                    },
                    "indices" : 14
                }
            ]
        }
    ],
    "accessors" : [
        {
            "bufferView" : 0,
            "componentType" : 5126,
            "count" : 5122,
            "max" : [
                1.004907488822937,
                1.0084999799728394,
                1.0084999799728394
            ],
            "min" : [
                -1.0060101747512817,
                -1.1868362426757812,
                -1.0084999799728394
            ],
            "type" : "VEC3"
        },
        {
            "bufferView" : 1,
            "componentType" : 5126,
            "count" : 5122,
            "type" : "VEC3"
        },
        {
            "bufferView" : 2,
            "componentType" : 5126,
            "count" : 5122,
            "type" : "VEC2"
        },
        {
            "bufferView" : 3,
            "componentType" : 5123,
            "count" : 7752,
            "type" : "SCALAR"
        },
        {
            "bufferView" : 4,
            "componentType" : 5126,
            "count" : 384,
            "max" : [
                1,
                1,
                1
            ],
            "min" : [
                -1,
                -1,
                -1
            ],
            "type" : "VEC3"
        },
        {
            "bufferView" : 5,
            "componentType" : 5126,
            "count" : 384,
            "type" : "VEC3"
        },
        {
            "bufferView" : 6,
            "componentType" : 5126,
            "count" : 384,
            "type" : "VEC2"
        },
        {
            "bufferView" : 7,
            "componentType" : 5123,
            "count" : 564,
            "type" : "SCALAR"
        },
        {
            "bufferView" : 8,
            "componentType" : 5126,
            "count" : 384,
            "max" : [
                1,
                1,
                1
            ],
            "min" : [
                -1,
                -1,
                -1
            ],
            "type" : "VEC3"
        },
        {
            "bufferView" : 9,
            "componentType" : 5126,
            "count" : 384,
            "type" : "VEC3"
        },
        {
            "bufferView" : 10,
            "componentType" : 5126,
            "count" : 384,
            "type" : "VEC2"
        },
        {
            "bufferView" : 11,
            "componentType" : 5126,
            "count" : 192,
            "max" : [
                7.287874698638916,
                0.15066103637218475,
                7.287837982177734
            ],
            "min" : [
                -7.287874698638916,
                -0.15066102147102356,
                -7.287837982177734
            ],
            "type" : "VEC3"
        },
        {
            "bufferView" : 12,
            "componentType" : 5126,
            "count" : 192,
            "type" : "VEC3"
        },
        {
            "bufferView" : 13,
            "componentType" : 5126,
            "count" : 192,
            "type" : "VEC2"
        },
        {
            "bufferView" : 14,
            "componentType" : 5123,
            "count" : 288,
            "type" : "SCALAR"
        },
        {
            "bufferView" : 15,
            "componentType" : 5126,
            "count" : 192,
            "max" : [
                7.287874698638916,
                0.15066103637218475,
                7.287837982177734
            ],
            "min" : [
                -7.287874698638916,
                -0.15066102147102356,
                -7.287837982177734
            ],
            "type" : "VEC3"
        },
        {
            "bufferView" : 16,
            "componentType" : 5126,
            "count" : 192,
            "type" : "VEC3"
        },
        {
            "bufferView" : 17,
            "componentType" : 5126,
            "count" : 192,
            "type" : "VEC2"
        }
    ],
    "bufferViews" : [
        {
            "buffer" : 0,
            "byteLength" : 61464,
            "byteOffset" : 0
        },
        {
            "buffer" : 0,
            "byteLength" : 61464,
            "byteOffset" : 61464
        },
        {
            "buffer" : 0,
            "byteLength" : 40976,
            "byteOffset" : 122928
        },
        {
            "buffer" : 0,
            "byteLength" : 15504,
            "byteOffset" : 163904
        },
        {
            "buffer" : 0,
            "byteLength" : 4608,
            "byteOffset" : 179408
        },
        {
            "buffer" : 0,
            "byteLength" : 4608,
            "byteOffset" : 184016
        },
        {
            "buffer" : 0,
            "byteLength" : 3072,
            "byteOffset" : 188624
        },
        {
            "buffer" : 0,
            "byteLength" : 1128,
            "byteOffset" : 191696
        },
        {
            "buffer" : 0,
            "byteLength" : 4608,
            "byteOffset" : 192824
        },
        {
            "buffer" : 0,
            "byteLength" : 4608,
            "byteOffset" : 197432
        },
        {
            "buffer" : 0,
            "byteLength" : 3072,
            "byteOffset" : 202040
        },
        {
            "buffer" : 0,
            "byteLength" : 2304,
            "byteOffset" : 205112
        },
        {
            "buffer" : 0,
            "byteLength" : 2304,
            "byteOffset" : 207416
        },
        {
            "buffer" : 0,
            "byteLength" : 1536,
            "byteOffset" : 209720
        },
        {
            "buffer" : 0,
            "byteLength" : 576,
            "byteOffset" : 211256
        },
        {
            "buffer" : 0,
            "byteLength" : 2304,
            "byteOffset" : 211832
        },
        {
            "buffer" : 0,
            "byteLength" : 2304,
            "byteOffset" : 214136
        },
        {
            "buffer" : 0,
            "byteLength" : 1536,
            "byteOffset" : 216440
        }
    ],
    "buffers" : [
        {
            "byteLength" : 217976,
            "uri" : "newedit.bin"
        }
    ]
}
